<?xml version="1.0" standalone="no"?>
<!DOCTYPE svg PUBLIC "-//W3C//DTD SVG 20010904//EN"
 "http://www.w3.org/TR/2001/REC-SVG-20010904/DTD/svg10.dtd">
<svg version="1.0" xmlns="http://www.w3.org/2000/svg"
 width="256.000000pt" height="256.000000pt" viewBox="0 0 256.000000 256.000000"
 preserveAspectRatio="xMidYMid meet">

<g transform="translate(0.000000,256.000000) scale(0.100000,-0.100000)"
fill="#000000" stroke="none">
<path d="M1791 2392 c-41 -20 -69 -56 -76 -97 -5 -27 20 -63 260 -375 147
-190 273 -352 281 -360 13 -13 14 32 12 377 l-3 391 -25 27 c-44 48 -75 55
-252 55 -135 0 -169 -3 -197 -18z"/>
<path d="M1197 2296 c-65 -24 -100 -55 -175 -154 -53 -69 -69 -98 -60 -103 14
-9 37 -12 213 -30 66 -6 134 -17 151 -24 18 -7 67 -16 110 -20 50 -5 72 -10
59 -15 -12 -4 16 -10 70 -14 50 -4 100 -10 113 -13 12 -3 22 -1 22 3 0 5 -54
79 -120 165 -99 128 -128 160 -171 184 -62 33 -154 43 -212 21z"/>
<path d="M2415 1153 c-66 -12 -172 -27 -236 -32 -161 -15 -157 -11 -107 -83
84 -119 165 -164 284 -156 50 3 72 10 106 34 56 39 91 107 91 177 0 87 1 86
-138 60z"/>
<path d="M202 1000 l-172 -5 24 -36 c66 -97 242 -106 349 -18 20 17 42 39 47
50 10 17 7 19 -32 17 -24 -1 -121 -5 -216 -8z"/>
<path d="M1169 906 c-37 -35 -82 -45 -264 -62 l-70 -6 24 -19 c20 -16 40 -19
145 -19 141 0 176 13 196 74 19 59 10 69 -31 32z"/>
<path d="M1699 906 c-37 -35 -83 -45 -263 -62 -64 -5 -67 -7 -52 -22 14 -14
40 -17 156 -17 132 0 139 1 164 24 24 22 43 77 35 100 -2 5 -20 -5 -40 -23z"/>
<path d="M1176 371 c-33 -34 -94 -48 -245 -58 -103 -6 -104 -6 -81 -25 19 -15
41 -18 160 -18 135 0 138 0 163 26 24 24 46 88 35 99 -2 3 -17 -8 -32 -24z"/>
<path d="M1707 372 c-34 -35 -90 -49 -234 -58 -103 -7 -120 -14 -84 -34 32
-16 282 -13 307 5 26 17 47 65 42 95 -3 21 -4 21 -31 -8z"/>
</g>
</svg>
